<svg width="100%" viewBox="0 0 285 128" fill="none" xmlns="http://www.w3.org/2000/svg">
<g clip-path="url(#clip0_893_44612)">
<path d="M90.3522 0.0483398C83.7942 0.0483398 77.8689 4.32907 76.2263 10.2256L70.8485 27.8912L67.1132 11.7329C65.6167 5.0164 59.5332 0.0965735 52.598 0.0965735C45.6628 0.0965735 39.5671 5.0164 38.0949 11.7329L34.3596 27.8912L28.9818 10.2256C27.3271 4.32907 21.4018 0.0483398 14.8437 0.0483398C6.65535 0.0483398 0 6.64429 0 14.7596C0 16.6889 0.267674 18.4495 0.790855 19.8362C0.790855 19.8362 20.4892 78.838 20.7082 79.3565V79.3806H20.7204C22.1926 82.6726 25.5142 84.9757 29.3833 84.9757C32.0722 84.9757 34.4813 83.8663 36.209 82.0817L52.5858 66.8399L68.9626 82.0817C70.6903 83.8543 73.0994 84.9757 75.7883 84.9757C79.6574 84.9757 82.979 82.6726 84.4512 79.3806V79.3565C84.6945 78.838 104.381 19.8362 104.381 19.8362C104.892 18.4374 105.172 16.6889 105.172 14.7596C105.184 6.64429 98.5284 0.0483398 90.3522 0.0483398Z" fill="#C4D600"/>
<path d="M270.167 84.9757C263.609 84.9757 257.684 80.695 256.041 74.7984L250.663 57.1328L246.928 73.2911C245.444 80.0076 239.36 84.9275 232.413 84.9275C225.465 84.9275 219.394 80.0076 217.91 73.2911L214.174 57.1328L208.797 74.7984C207.154 80.707 201.217 84.9757 194.671 84.9757C186.482 84.9757 179.827 78.3798 179.827 70.2645C179.827 68.3351 180.095 66.5746 180.618 65.1879C180.618 65.1879 200.316 6.18607 200.535 5.66756V5.64344H200.547C202.02 2.3515 205.341 0.0483398 209.21 0.0483398C211.899 0.0483398 214.308 1.15771 216.036 2.94236L232.413 18.1842L248.79 2.94236C250.517 1.16977 252.926 0.0483398 255.615 0.0483398C259.484 0.0483398 262.806 2.3515 264.278 5.64344V5.66756C264.521 6.18607 284.208 65.1879 284.208 65.1879C284.719 66.5866 284.999 68.3351 284.999 70.2645C284.999 78.3798 278.343 84.9757 270.155 84.9757" fill="#505759"/>
<path d="M160.617 58.833C160.203 58.833 155.616 58.833 155.616 58.833L160.106 55.1069C168.026 48.5954 172.041 40.4198 172.041 30.8092C172.041 13.8189 158.098 0 140.955 0C129.104 0 121.597 5.9448 117.375 10.9249C112.265 16.9662 109.978 24.0324 109.978 28.3614C109.978 35.4517 115.806 41.2277 122.96 41.2277C127.997 41.2277 132.121 38.7195 134.567 34.1615C134.883 33.5827 135.175 32.9677 135.492 32.3407C137.609 28.0599 138.631 26.7335 140.955 26.7335C143.279 26.7335 144.958 28.482 144.958 30.7007C144.958 34.3544 138.035 40.0339 135.127 42.5782C129.834 47.1966 111.243 62.2214 110.622 62.9449C108.384 65.2963 107.009 68.4556 107.009 71.9405C107.009 79.1755 112.934 85.048 120.234 85.048C120.441 85.048 120.648 85.048 120.855 85.0359H159.996C160.203 85.0359 160.41 85.048 160.617 85.048C167.917 85.048 173.842 79.1755 173.842 71.9405C173.842 64.7054 167.917 58.833 160.617 58.833Z" fill="#505759"/>
<path d="M126.269 122.598H128.995C130.516 122.598 131.89 122.393 133.034 121.85C135.382 120.753 136.173 118.534 136.173 116.002C136.173 113.807 135.589 112.276 134.555 111.251C133.277 109.949 131.343 109.442 128.995 109.442H126.269V122.622V122.598ZM137.147 125.986C134.689 127.361 131.963 127.662 129.408 127.662H120.806C120.466 127.662 120.186 127.385 120.186 127.047V104.968C120.186 104.631 120.466 104.354 120.806 104.354H129.859C133.314 104.354 136.623 104.896 139.495 107.838C141.223 109.623 142.391 112.252 142.391 115.99C142.391 120.029 140.979 123.828 137.147 125.986Z" fill="#C4D600"/>
<path d="M279.064 104.354C279.404 104.354 279.684 104.631 279.684 104.968V109.08C279.684 109.418 279.404 109.695 279.064 109.695H272.432V127.047C272.432 127.385 272.153 127.662 271.812 127.662H266.982C266.641 127.662 266.361 127.385 266.361 127.047V109.695H259.73C259.389 109.695 259.11 109.418 259.11 109.08V104.968C259.11 104.631 259.389 104.354 259.73 104.354H279.064Z" fill="#505759"/>
<path d="M106.146 104.354C106.487 104.354 106.767 104.631 106.767 104.968V122.321H115.856C116.196 122.321 116.476 122.598 116.476 122.936V127.047C116.476 127.385 116.196 127.662 115.856 127.662H101.316C100.975 127.662 100.696 127.385 100.696 127.047V104.968C100.696 104.631 100.975 104.354 101.316 104.354H106.146Z" fill="#C4D600"/>
<path d="M57.0499 109.695C53.3876 109.695 50.7596 112.36 50.7596 116.062C50.7596 119.764 53.3876 122.393 57.0499 122.393C60.7122 122.393 63.3037 119.764 63.3037 116.062C63.3037 112.36 60.7122 109.695 57.0499 109.695ZM57.0499 128C50.212 128 44.311 123.273 44.311 116.05C44.311 108.827 50.212 104.04 57.0499 104.04C63.8878 104.04 69.7523 108.767 69.7523 116.05C69.7523 123.333 63.8513 128 57.0499 128Z" fill="#C4D600"/>
<path d="M34.7015 104.968C34.7015 104.631 34.9814 104.354 35.3221 104.354H40.1524C40.493 104.354 40.7729 104.631 40.7729 104.968V119.27C40.7729 122.248 39.8117 124.334 38.2908 125.709C36.4901 127.313 33.9715 127.964 31.4529 127.964C30.3092 127.964 29.0682 127.831 27.9002 127.445C26.939 127.144 26.0021 126.625 25.1383 125.878C24.2744 126.625 23.3375 127.144 22.3764 127.445C21.2083 127.819 19.9551 127.964 18.8236 127.964C16.305 127.964 13.7864 127.313 11.9857 125.709C10.4649 124.334 9.50366 122.248 9.50366 119.27V104.968C9.50366 104.631 9.7835 104.354 10.1242 104.354H14.9545C15.2952 104.354 15.575 104.631 15.575 104.968V119.173C15.575 120.331 15.9157 121.127 16.4754 121.633C17.0959 122.212 17.9597 122.417 18.8236 122.417C20.1376 122.417 20.965 122.079 21.4517 121.428C21.9383 120.777 22.1087 119.788 22.1087 118.486V104.968C22.1087 104.631 22.3885 104.354 22.7292 104.354H27.5595C27.9002 104.354 28.18 104.631 28.18 104.968V118.486C28.18 119.788 28.3504 120.777 28.837 121.428C29.3237 122.079 30.1511 122.417 31.4651 122.417C32.329 122.417 33.1928 122.212 33.8133 121.633C34.3609 121.115 34.7137 120.331 34.7137 119.173V104.968H34.7015Z" fill="#C4D600"/>
<path d="M197.398 113.023C197.398 111.866 197.057 111.07 196.497 110.564C195.877 109.985 195.013 109.78 194.149 109.78C192.835 109.78 192.008 110.117 191.521 110.769C191.034 111.42 190.864 112.409 190.864 113.711V127.228C190.864 127.566 190.584 127.843 190.243 127.843H185.413C185.072 127.843 184.793 127.566 184.793 127.228V113.711C184.793 112.409 184.622 111.42 184.135 110.769C183.649 110.117 182.821 109.78 181.507 109.78C180.644 109.78 179.78 109.985 179.159 110.564C178.612 111.082 178.259 111.866 178.259 113.023V127.228C178.259 127.566 177.979 127.843 177.638 127.843H172.808C172.467 127.843 172.188 127.566 172.188 127.228V112.927C172.188 109.949 173.149 107.862 174.67 106.488C176.47 104.884 178.989 104.233 181.507 104.233C182.651 104.233 183.892 104.366 185.06 104.739C186.021 105.053 186.958 105.559 187.822 106.319C188.686 105.571 189.623 105.053 190.584 104.739C191.752 104.366 193.005 104.233 194.137 104.233C196.655 104.233 199.174 104.884 200.975 106.488C202.496 107.862 203.457 109.949 203.457 112.927V127.228C203.457 127.566 203.177 127.843 202.836 127.843H198.006C197.665 127.843 197.385 127.566 197.385 127.228V113.023H197.398Z" fill="#505759"/>
<path d="M250.531 113.084C250.287 110.841 248.596 109.478 246.163 109.43C243.62 109.37 241.612 111.118 241.345 113.084H250.543H250.531ZM241.332 118.172C241.722 120.524 243.644 122.164 246.163 122.381C248.621 122.586 250.969 122.164 253.086 120.898C253.901 120.415 254.278 120.596 254.607 121.404C255.033 122.453 255.544 123.466 256.042 124.479C256.334 125.058 256.286 125.432 255.641 125.769C250.981 128.169 246.102 128.591 241.199 126.879C237.086 125.444 235.018 122.188 234.409 118.04C233.935 114.856 234.324 111.781 236.174 109.044C238.802 105.173 242.647 103.775 247.233 104.112C251.03 104.39 254.047 105.969 255.848 109.394C257.186 111.938 257.332 114.675 257.15 117.461C257.101 118.233 256.505 118.184 255.957 118.184H241.332V118.172Z" fill="#505759"/>
<path d="M223.911 113.024C223.631 110.805 221.964 109.478 219.531 109.43C216.951 109.37 214.944 111.191 214.725 113.024H223.911ZM214.725 118.172C215.077 120.5 217.024 122.164 219.543 122.381C222 122.586 224.337 122.164 226.466 120.91C227.257 120.439 227.658 120.572 227.987 121.404C228.425 122.477 228.96 123.526 229.459 124.576C229.727 125.13 229.605 125.48 229.033 125.769C224.373 128.169 219.494 128.603 214.591 126.891C210.478 125.456 208.41 122.212 207.789 118.064C207.315 114.881 207.692 111.806 209.554 109.068C212.17 105.198 216.014 103.787 220.601 104.124C224.397 104.402 227.415 105.969 229.228 109.394C230.566 111.938 230.712 114.676 230.542 117.461C230.493 118.233 229.909 118.197 229.349 118.197H214.725V118.172Z" fill="#505759"/>
<path d="M166.151 122.417H158.206C158.206 122.067 160.323 120.898 162.209 119.077C163.827 117.738 165.421 115.724 165.421 112.577C165.421 108.055 161.09 104.365 156.539 104.365C151.624 104.365 148.412 108.248 147.597 110.732C147.572 110.805 147.572 110.865 147.572 110.913H147.548C147.402 111.335 147.511 111.588 147.864 111.745L151.6 113.614C152.062 113.855 152.342 113.53 152.512 113.144C152.524 113.108 152.549 113.072 152.573 113.035C153.23 111.806 154.678 110.093 156.539 110.093C157.914 110.093 159.447 111.492 159.447 112.867C159.447 114.446 157.926 115.676 156.162 117.147H156.174C154.082 119.077 148.095 122.562 148.095 125.106V127.337C148.095 127.698 148.387 128 148.765 128H166.151C166.516 128 166.821 127.711 166.821 127.337V123.092C166.821 122.73 166.528 122.429 166.151 122.429" fill="#505759"/>
<path d="M79.2427 115.001V109.454H85.6182C86.3482 109.454 87.1026 109.623 87.6623 110.033C88.2828 110.479 88.6234 111.191 88.6234 112.228C88.6234 113.265 88.2098 114.072 87.5527 114.482C87.0052 114.856 86.1657 115.001 85.1072 115.001H79.2427ZM97.554 124.889C96.9943 123.985 96.4955 123.044 95.9967 122.091C95.6803 121.488 95.3761 121.356 94.7313 121.742C92.0667 123.321 90.1322 122.586 89.0615 119.788C89.6576 119.463 91.507 118.474 92.2127 117.919C93.7823 116.689 94.8043 114.217 94.8043 112.167C94.8043 109.707 93.8431 107.404 92.0789 106.042C90.5215 104.848 88.3436 104.365 86.0319 104.365H73.7797C73.439 104.365 73.1592 104.643 73.1592 104.98V127.059C73.1592 127.397 73.439 127.674 73.7797 127.674H78.61C78.9507 127.674 79.2305 127.397 79.2305 127.059V120.078H81.6883C82.3331 120.078 82.5521 120.162 82.8198 120.693C83.4525 122.007 84.1095 123.333 84.9368 124.539C88.0273 129.061 94.5001 128.41 97.189 126.384C97.7609 125.95 97.9799 125.564 97.554 124.889Z" fill="#C4D600"/>
</g>
<defs>
<clipPath id="clip0_893_44612">
<rect width="285" height="128" fill="white"/>
</clipPath>
</defs>
</svg>
